<?xml version="1.0" encoding="iso-8859-1"?>
<!-- Generator: Adobe Illustrator 19.0.0, SVG Export Plug-In . SVG Version: 6.00 Build 0)  -->
<svg version="1.1" id="Capa_1" xmlns="http://www.w3.org/2000/svg" xmlns:xlink="http://www.w3.org/1999/xlink" x="0px" y="0px"
	 viewBox="0 0 512 512" style="enable-background:new 0 0 512 512;" xml:space="preserve">
<circle style="fill:#414141;" cx="256" cy="256" r="256"/>
  <path style="fill:#2E2E2E;" d="M512,256c0,141.44-114.72,256-256,256c-80.64,0-152.64-37.28-199.36-95.52
	c43.84,35.2,99.36,56.16,160,56.16c141.28,0,256-114.56,256-256c0-60.64-20.96-116.16-56.32-160C474.72,103.52,512,175.36,512,256z"
	/>
<g>
	<path style="fill:#FAFAFA;" d="M399.68,208.32c-8.832,0-16-7.168-16-16c0-17.632-14.336-32-32-32s-32,14.368-32,32
		c0,8.832-7.168,16-16,16s-16-7.168-16-16c0-35.296,28.704-64,64-64s64,28.704,64,64C415.68,201.184,408.512,208.32,399.68,208.32z"
		/>
	<path style="fill:#FAFAFA;" d="M207.68,208.32c-8.832,0-16-7.168-16-16c0-17.632-14.368-32-32-32s-32,14.368-32,32
		c0,8.832-7.168,16-16,16s-16-7.168-16-16c0-35.296,28.704-64,64-64s64,28.704,64,64C223.68,201.184,216.512,208.32,207.68,208.32z"
		/>
</g>
<path style="fill:#FAFAFA;" d="M437.696,294.688c-3.04-4-7.744-6.368-12.736-6.368H86.4c-5.024,0-9.728,2.336-12.736,6.336
	c-3.072,4.032-4.032,9.184-2.688,14.016C94.112,390.88,170.08,448.32,255.648,448.32s161.536-57.44,184.672-139.648
	C441.696,303.84,440.736,298.688,437.696,294.688z"/>
<g>
</g>
<g>
</g>
<g>
</g>
<g>
</g>
<g>
</g>
<g>
</g>
<g>
</g>
<g>
</g>
<g>
</g>
<g>
</g>
<g>
</g>
<g>
</g>
<g>
</g>
<g>
</g>
<g>
</g>
</svg>
